<?xml version="1.0" encoding="UTF-8" standalone="no"?>
<!-- Created with Inkscape (http://www.inkscape.org/) -->

<svg
   xmlns:dc="http://purl.org/dc/elements/1.1/"
   xmlns:cc="http://creativecommons.org/ns#"
   xmlns:rdf="http://www.w3.org/1999/02/22-rdf-syntax-ns#"
   xmlns:svg="http://www.w3.org/2000/svg"
   xmlns="http://www.w3.org/2000/svg"
   xmlns:sodipodi="http://sodipodi.sourceforge.net/DTD/sodipodi-0.dtd"
   xmlns:inkscape="http://www.inkscape.org/namespaces/inkscape"
   width="142.09129mm"
   height="25.223049mm"
   viewBox="0 0 142.09129 25.223049"
   version="1.1"
   id="svg329"
   inkscape:version="0.92.0 r15299"
   sodipodi:docname="the cheesecake factory.svg">
  <defs
     id="defs323">
	

		
	</defs>
  <sodipodi:namedview
     id="base"
     pagecolor="#ffffff"
     bordercolor="#666666"
     borderopacity="1.0"
     inkscape:pageopacity="0.0"
     inkscape:pageshadow="2"
     inkscape:zoom="1.5039612"
     inkscape:cx="266.62923"
     inkscape:cy="45.775848"
     inkscape:document-units="mm"
     inkscape:current-layer="layer1"
     showgrid="false"
     fit-margin-top="0"
     fit-margin-left="0"
     fit-margin-right="0"
     fit-margin-bottom="0"
     inkscape:window-width="1280"
     inkscape:window-height="744"
     inkscape:window-x="-4"
     inkscape:window-y="-4"
     inkscape:window-maximized="1" />
  <metadata
     id="metadata326">
    <rdf:RDF>
      <cc:Work
         rdf:about="">
        <dc:format>image/svg+xml</dc:format>
        <dc:type
           rdf:resource="http://purl.org/dc/dcmitype/StillImage" />
        <dc:title></dc:title>
      </cc:Work>
    </rdf:RDF>
  </metadata>
  <g
     inkscape:label="Layer 1"
     inkscape:groupmode="layer"
     id="layer1"
     transform="translate(-26.411197,-180.80217)">
    <g
       id="g1390"
       transform="translate(11.644462,-56.222324)"
       style="fill:#fde488;fill-opacity:1">
      <g
         style="fill:#fde488;fill-opacity:1"
         transform="matrix(0.35277777,0,0,-0.35277777,40.59764,237.99041)"
         id="g638">
        <path
           inkscape:connector-curvature="0"
           id="path640"
           style="fill:#fde488;fill-opacity:1;fill-rule:nonzero;stroke:none"
           d="m 0,0 c 0.16,0.137 0.738,0.211 0.875,-0.301 0.14,-0.52 -1.671,-3.79 -1.82,-4.47 -0.897,-1.571 -1.143,0.293 -1.659,1.418 -0.515,1.122 -2.681,0.926 -2.881,-0.187 -0.191,-1.13 -0.039,-9.566 0.172,-10.832 0.059,-0.407 0.176,-1.063 0.945,-1.423 0.956,-0.445 0.956,-1.5 -0.094,-1.5 -0.66,0 -1.854,-0.078 -2.873,-0.078 -1.015,0 -2.104,-0.016 -3.088,-0.016 -0.644,0 -0.984,1.075 -0.179,1.501 0.534,0.265 0.819,0.855 0.827,1.426 0.106,3.728 0.082,8.96 -0.312,11.058 -0.215,1.138 -1.777,0.825 -2.92,0.102 -1.015,-0.637 -1.785,-1.684 -2.038,-1.915 -0.355,-0.324 -1.897,-0.875 -1.074,0.926 0.527,1.149 1.14,2.322 2.386,4.291 0.21,-0.023 0.772,0.395 1.214,-0.477 6.054,-0.078 9.107,-0.058 11.41,0.02 C -0.695,-0.445 -0.23,-0.176 0,0" />
      </g>
      <g
         style="fill:#fde488;fill-opacity:1"
         transform="matrix(0.35277777,0,0,-0.35277777,40.906178,238.94986)"
         id="g642">
        <path
           inkscape:connector-curvature="0"
           id="path644"
           style="fill:#fde488;fill-opacity:1;fill-rule:nonzero;stroke:none"
           d="m 0,0 c -0.617,-1.231 0.832,-1.032 0.902,-1.676 0.121,-1.255 0.027,-9.695 0.027,-10.524 0,-0.805 -0.835,-0.863 -0.96,-1.289 -0.176,-0.52 -0.032,-0.985 0.753,-0.985 h 4.497 c 1.035,0 0.66,1.02 -0.269,1.563 -0.223,0.133 -0.465,0.661 -0.465,1.134 -0.023,1.969 -0.023,4.599 0.059,4.985 0.586,1.11 1.515,1.224 2.209,0.466 1.14,-1.282 2.37,-4.197 2.351,-7.03 -0.016,-1.598 0.207,-2.767 -0.93,-4.19 -0.378,-0.449 -1.495,-1.605 0.5,-0.98 2.506,1.352 2.662,3.411 2.951,5.486 0.359,2.466 -0.066,4.916 -1.085,6.948 C 9.713,-4.478 9.213,-3.568 7.577,-3.318 6.484,-3.153 5.703,-4.033 4.462,-4.677 4.462,-1.68 4.415,0.731 4.396,1.579 4.388,2.63 4.036,2.583 3.361,2.114 2.791,1.735 1.561,1.09 0,0" />
      </g>
      <g
         style="fill:#fde488;fill-opacity:1"
         transform="matrix(0.35277777,0,0,-0.35277777,30.083029,238.85334)"
         id="g646">
        <path
           inkscape:connector-curvature="0"
           id="path648"
           style="fill:#fde488;fill-opacity:1;fill-rule:nonzero;stroke:none"
           d="m 0,0 c -0.59,-0.195 -1.589,0.195 -2.374,0.43 -2.841,0.887 -6.07,1.536 -9.369,1.532 -8.006,0 -18.121,-3.533 -25.16,-15.631 -3.017,-5.189 -4.333,-8.945 -4.938,-15.04 -0.456,-4.866 0.051,-10.789 1.839,-15.576 3.365,-8.988 12.312,-19.273 25.538,-20.488 5.61,-0.492 13.386,0.481 17.817,2.911 6.801,3.822 10.861,10.652 11.602,11.805 0.984,1.524 -0.769,2.947 -1.975,1.579 -1.495,-1.68 -6.269,-8.605 -16.232,-10.156 -8.163,-1.227 -16.084,2.723 -20.194,7.839 -5.692,7.065 -6.152,15.427 -6.367,18.752 -0.192,17.425 8.237,28.8 18.398,29.007 4.337,0.191 8.019,-1.485 11.196,-3.724 7.363,-5.201 7.8,-11.286 10.572,-12.403 1.284,-0.512 3.958,0.172 3.958,1.747 0.008,3.724 -2.331,6.748 -4.727,12.219 C 7.745,-0.985 6.176,3.107 5.469,3.681 5.157,3.802 3.83,3.806 3.564,3.622 3.045,3.29 2.299,2.235 1.37,1.403 0.547,0.66 0.601,0.195 0,0" />
      </g>
      <g
         style="fill:#fde488;fill-opacity:1"
         transform="matrix(0.35277777,0,0,-0.35277777,45.194687,242.38377)"
         id="g650">
        <path
           inkscape:connector-curvature="0"
           id="path652"
           style="fill:#fde488;fill-opacity:1;fill-rule:nonzero;stroke:none"
           d="M 0,0 C -0.297,3.267 2.073,6.784 6.874,6.217 10.138,5.818 10.985,2.356 11.09,1.95 7.304,0.317 4.489,-0.395 4.04,-0.524 c 0.035,-0.387 0.699,-2.293 2.335,-2.821 0.929,-0.297 2.518,-0.231 4.141,1.086 0.684,0.571 1.558,0.383 0.606,-0.879 0,0 -1.749,-1.836 -4.529,-1.938 C 2.397,-5.217 0.25,-2.743 0,0 M 4.571,4.806 C 3.185,4.537 2.842,1.536 3.74,1.036 5.285,1.125 6.203,1.747 7.604,2.302 6.914,4.325 5.961,5.084 4.571,4.806" />
      </g>
      <g
         style="fill:#fde488;fill-opacity:1"
         transform="matrix(0.35277777,0,0,-0.35277777,80.346734,241.78546)"
         id="g654">
        <path
           inkscape:connector-curvature="0"
           id="path656"
           style="fill:#fde488;fill-opacity:1;fill-rule:nonzero;stroke:none"
           d="m 0,0 c -0.71,-0.446 -0.511,-1.669 0.183,-2.032 0.719,-0.367 2.363,-0.395 2.472,-1.665 0,-16.482 -0.082,-24.039 -0.082,-25.415 0,-1.825 -2.643,-1.723 -2.643,-2.942 -0.028,-0.934 0.168,-1.81 1.468,-1.81 1.303,0 7.706,-0.035 9.115,-0.035 0.769,0 1.608,0.872 1.359,1.669 -0.196,0.66 -1.39,1.235 -1.761,1.387 -0.695,0.27 -1.007,1.516 -1.07,2.149 -0.074,0.625 -0.027,2.501 -0.027,3.247 0,0.747 1.721,2.646 2.725,2.646 0.207,0 0.722,-0.481 1.097,-1.145 1.487,-2.657 4.376,-10.011 5.11,-10.011 1.179,0 5.465,-0.012 6.464,-0.012 1.336,0 2.382,1.625 0.656,2.72 -0.429,0.265 -1.268,0.586 -1.913,1.215 -0.71,0.691 -1.265,1.707 -2.069,3.384 -1.838,3.743 -3.072,5.795 -3.673,7.159 -0.359,0.801 -0.628,1.371 -0.586,1.782 0.133,0.871 2.35,2.575 3.83,2.77 2.436,0.36 1.753,2.771 0.016,2.771 -4.174,-0.032 -5.813,0.066 -7.281,0.023 -2.565,-0.066 -1.64,-2.005 -1.71,-1.825 0.113,-0.324 1.78,-0.664 1.729,-1.399 -0.07,-0.914 -0.885,-1.965 -1.385,-2.465 -0.598,-0.583 -1.039,-1.298 -2.022,-2.165 -0.43,-0.387 -0.719,-0.024 -0.734,0.289 -0.195,10.043 0.128,20.304 0.128,22.942 0,1.969 -1.67,0.98 -2.502,0.543 C 5.723,3.157 0.917,0.59 0,0" />
      </g>
      <g
         style="fill:#fde488;fill-opacity:1"
         transform="matrix(0.35277777,0,0,-0.35277777,50.988392,246.25053)"
         id="g658">
        <path
           inkscape:connector-curvature="0"
           id="path660"
           style="fill:#fde488;fill-opacity:1;fill-rule:nonzero;stroke:none"
           d="m 0,0 c -1.687,0.188 -2.498,0.832 -6.226,0.774 -1.804,-0.047 -4.982,-0.45 -6.36,-3.802 -0.8,-1.946 -0.207,-3.865 0.074,-4.541 1.433,-3.576 6.59,-4.295 9.322,-5.256 3.495,-1.235 4.927,-1.676 4.689,-3.271 -0.183,-1.387 -1.874,-2.805 -7.187,-1.75 -2.147,0.434 -4.731,2.255 -6.43,3.978 -0.604,0.578 -1.76,0.137 -1.389,-1.212 0.375,-1.332 3.584,-6.588 3.927,-7.174 0.34,-0.598 1.304,-0.879 1.698,-0.203 0.352,0.621 0.516,1.235 1.335,1.387 0.91,0.172 2.573,-0.172 4.888,-0.465 3.033,-0.328 5.973,0.129 7.808,1.544 1.877,1.469 2.619,3.931 2.338,6.006 -0.5,3.638 -3.291,5.341 -7.394,6.4 -2.752,0.715 -5.676,1.423 -6.656,2.122 -1.019,0.715 -1.284,1.77 -0.414,2.712 1.128,1.2 3.818,0.758 5.181,0.438 C 0.98,-2.731 2.541,-3.532 4.536,-5.228 5.68,-6.217 6.308,-6.053 6.558,-5.846 7.48,-5.064 5.785,-3.638 4.696,-1.571 3.392,0.898 2.939,1.739 2.108,1.504 1.374,1.293 0.632,-0.074 0,0" />
      </g>
      <g
         style="fill:#fde488;fill-opacity:1"
         transform="matrix(0.35277777,0,0,-0.35277777,66.795516,245.95554)"
         id="g662">
        <path
           inkscape:connector-curvature="0"
           id="path664"
           style="fill:#fde488;fill-opacity:1;fill-rule:nonzero;stroke:none"
           d="m 0,0 c -5.012,-0.035 -12.141,-3.024 -12.336,-11.5 -0.207,-8.484 6.679,-11.102 11.91,-11.254 8.015,0.414 9.803,4.712 10.552,6.096 0.492,0.906 -1.089,2.18 -2.116,0.762 -2.471,-3.349 -5.867,-3.826 -7.897,-3.212 -3.427,1.016 -4.669,3.7 -5.145,7.92 -0.414,3.713 0.824,8.554 4.922,8.445 4.361,-0.106 4.579,-5.104 5.126,-6.092 0.539,-0.993 1.39,-0.934 1.96,0.297 0.562,1.184 1.073,2.954 1.854,4.251 0.726,1.286 0.063,1.848 -0.921,2.388 C 5.895,-0.797 3.822,0.031 0,0" />
      </g>
      <g
         style="fill:#fde488;fill-opacity:1"
         transform="matrix(0.35277777,0,0,-0.35277777,30.066448,249.31913)"
         id="g666">
        <path
           inkscape:connector-curvature="0"
           id="path668"
           style="fill:#fde488;fill-opacity:1;fill-rule:nonzero;stroke:none"
           d="m 0,0 c 0.617,4.47 4.466,9.023 9.666,9.468 5.207,0.442 7.226,-1 8.709,-2.262 C 20.128,5.709 22.302,1.79 21.502,0.899 20.678,0 12.391,-2.067 9.186,-3.368 8.577,-3.611 7.8,-3.802 8.093,-4.623 c 0.55,-1.559 2.318,-3.794 4.555,-4.439 3.143,-0.93 6.277,0.758 8.221,2.313 1.023,0.833 2.183,0.051 1.297,-1.57 -0.578,-1.063 -3.877,-4.107 -9.908,-4.424 C 3.295,-13.134 -0.847,-6.112 0,0 M 9.396,6.791 C 8.007,6.616 6.972,5.471 6.566,3.861 6.059,1.735 6.613,-1.098 7.277,-1.407 c 0.671,-0.289 6.714,1.915 7.136,2.638 0.535,0.906 -1.078,6.076 -5.017,5.56" />
      </g>
      <g
         style="fill:#fde488;fill-opacity:1"
         transform="matrix(0.35277777,0,0,-0.35277777,74.474606,245.95416)"
         id="g670">
        <path
           inkscape:connector-curvature="0"
           id="path672"
           style="fill:#fde488;fill-opacity:1;fill-rule:nonzero;stroke:none"
           d="m 0,0 c 1.721,0.055 5.797,-0.332 7.542,-4.861 1.722,-4.451 3.63,-10.945 4.407,-12.309 0.773,-1.376 1.987,-1.985 2.706,-1.305 0.636,0.59 1.077,-0.278 1.077,-1.059 0,-0.958 -0.792,-2.243 -2.935,-2.747 -2.034,-0.497 -4.783,0.297 -5.56,0.93 -0.636,0.519 -1.05,1.344 -1.569,1.305 -1.53,-0.11 -3.033,-2.196 -7.799,-2.47 -6.102,-0.355 -9.042,3.4 -8.616,6.592 0.441,3.338 2.041,5.01 5.071,6.315 1.881,0.817 5.809,1.094 7.245,1.075 0.687,-0.004 0.191,1.082 0.125,1.371 C 0.8,-3.4 -2.167,-3.169 -4.61,-4.052 -6.071,-4.584 -7.347,-5.635 -7.734,-5.834 -8.807,-6.389 -9.756,-5.111 -8.791,-3.931 -5.668,-0.172 -2.936,-0.066 0,0 m -1.609,-11.707 c -1.221,-0.551 -2.642,-2.22 -2.123,-4.072 0.581,-2.063 1.94,-3.912 5.656,-3.138 3.713,0.785 1.894,5.197 1.511,6.088 -0.371,0.895 -0.753,1.466 -1.639,1.536 -0.906,0.078 -2.187,0.145 -3.405,-0.414" />
      </g>
      <g
         style="fill:#fde488;fill-opacity:1"
         transform="matrix(0.35277777,0,0,-0.35277777,91.147838,240.51726)"
         id="g674">
        <path
           inkscape:connector-curvature="0"
           id="path676"
           style="fill:#fde488;fill-opacity:1;fill-rule:nonzero;stroke:none"
           d="m 0,0 c 0.691,-3.06 3.927,-4.756 9.927,-4.404 1.644,0.094 4.603,0.078 6.676,0.489 2.557,0.511 4.263,0.785 4.997,0.328 0.499,-0.317 0.644,-1.759 0.683,-4.048 0.191,-9.449 0.062,-34.454 -0.262,-37.401 -0.175,-1.629 -1.835,-4.997 -3.466,-8.249 -1.031,-2.055 0.902,-4.189 2.779,-2.942 1.46,0.953 7.976,5.94 11.442,7.897 1.054,0.586 1.3,2.204 0.246,3.224 -1.062,1.016 -1.675,2.145 -1.675,4.654 -0.05,12.227 -0.074,15.908 -0.042,17.842 0.027,1.489 0.027,1.821 1.081,1.864 1.054,0.043 7.956,0.188 8.826,0 0.882,-0.183 2.304,-1.379 3.556,-2.215 0.84,-0.555 2.796,-0.325 2.292,1.195 -0.503,1.524 -1.101,3.576 -1.382,4.823 -0.882,3.825 -1.3,6.263 -4.996,3.075 0,0 -0.246,-0.434 -0.668,-0.434 -0.418,0 -8.003,-0.156 -8.46,0.309 -0.468,0.457 -0.331,4.603 -0.242,6.682 0.094,2.071 -1.089,5.037 5.805,5.357 4.63,0.219 10.607,0.7 15.369,0.289 4.509,-0.379 8.093,-1.07 10.525,-2.227 2.436,-1.149 4.158,-0.203 4.891,0.258 0.234,0.144 1.218,1.075 0.883,2.579 -0.324,1.512 -0.422,3.4 -1.757,4.802 C 65.931,4.908 62.87,5.142 60.86,5.432 54.38,6.358 43.344,5.123 34.56,3.716 37.239,4.126 22.048,0.891 15.728,1.665 8.53,2.509 7.121,3.779 6.793,4.338 6.621,4.615 5.801,6.166 4.169,6.073 1.53,5.963 -0.871,3.912 0,0" />
      </g>
      <g
         style="fill:#fde488;fill-opacity:1"
         transform="matrix(0.35277777,0,0,-0.35277777,124.31562,246.56891)"
         id="g678">
        <path
           inkscape:connector-curvature="0"
           id="path680"
           style="fill:#fde488;fill-opacity:1;fill-rule:nonzero;stroke:none"
           d="m 0,0 c -0.836,-0.821 -0.999,-2.419 0.578,-2.388 0.038,0 1.479,0.047 1.842,0.047 0.355,-0.004 0.734,-0.172 0.746,-0.551 0.016,-0.203 0.14,-4.447 0.14,-7.264 0,-4.865 -0.773,-5.783 -0.414,-6.932 0.68,-2.341 3.436,-3.482 6.266,-3.603 3.228,0 6.031,1.332 7.124,2.477 1.656,1.704 0.77,3.767 -1.39,2.509 -1.143,-0.664 -2.373,-1.598 -3.595,-1.297 -1.101,0.269 -1.475,1.188 -1.651,2.614 -0.176,1.434 -0.109,9.917 -0.109,10.695 0,0.774 0.019,1.278 0.585,1.372 0.558,0.086 5.2,0.078 6.024,0.078 0.245,0 0.706,2.438 0.769,2.751 0.066,0.309 -0.027,0.613 -0.574,0.684 C 15.787,1.242 11.055,1.039 9.677,1.41 9.318,4.486 9.47,7.619 9.47,8.624 9.47,9.476 8.662,10.074 7.792,9.198 6.753,8.167 4.454,4.365 0,0" />
      </g>
      <g
         style="fill:#fde488;fill-opacity:1"
         transform="matrix(0.35277777,0,0,-0.35277777,146.15729,246.18713)"
         id="g682">
        <path
           inkscape:connector-curvature="0"
           id="path684"
           style="fill:#fde488;fill-opacity:1;fill-rule:nonzero;stroke:none"
           d="m 0,0 c -1.112,-0.117 -1.585,-2.087 0.016,-2.782 1.604,-0.7 2.014,-1.79 2.303,-2.427 0.906,-2.001 5.594,-12.969 6.679,-14.833 l 0.172,-0.414 c -5.75,-7.781 -9.67,-10.707 -13.191,-12.083 -2.178,-0.848 -4.068,-0.656 -5.473,-0.086 -1.897,0.754 -2.163,3.662 -1.944,4.17 0.64,1.41 -1.339,2.196 -3.463,1.637 -2.111,-0.555 -4.083,-2.857 -2.783,-5.897 1.53,-3.614 6.254,-5.427 12.235,-4.068 5.238,1.184 10.626,4.217 15.778,9.863 3.764,4.056 5.716,7.233 8.003,11.364 2.585,4.697 4.466,10.347 4.661,10.918 0.367,1.086 1.507,2.036 2.07,2.344 0.554,0.297 0.87,2.185 -0.426,2.333 -1.296,0.141 -8.881,0.215 -9.806,-0.125 -0.945,-0.336 -0.609,-1.844 0.382,-2.376 0.492,-0.258 1.351,-0.559 1.581,-1.074 0.211,-0.516 0.109,-1.63 -0.222,-2.673 -1.215,-3.841 -3.26,-7.343 -3.44,-7.37 -0.159,-0.031 -1.284,2.169 -2.377,4.556 -1.046,2.282 -1.854,4.51 -1.952,4.92 -0.179,0.868 0.457,1.622 1.425,1.762 0.972,0.149 1.05,2.298 -0.539,2.38 -0.784,0.055 -2.623,0 -4.282,-0.078 C 3.389,-0.137 0.886,0.074 0,0" />
      </g>
      <g
         style="fill:#fde488;fill-opacity:1"
         transform="matrix(0.35277777,0,0,-0.35277777,142.07399,247.5932)"
         id="g686">
        <path
           inkscape:connector-curvature="0"
           id="path688"
           style="fill:#fde488;fill-opacity:1;fill-rule:nonzero;stroke:none"
           d="m 0,0 c -0.476,-0.61 -0.832,-0.391 -0.832,-0.125 0,0.27 0.012,1.919 -0.042,2.688 -0.125,2.482 -2.222,0.977 -4.314,-0.238 -1.776,-1.02 -4.228,-2.532 -4.54,-2.806 -0.336,-0.269 -0.445,-1.41 0.468,-1.801 0.605,-0.266 1.214,-0.016 1.718,-0.5 0.25,-0.235 0.367,-1.13 0.347,-2.001 -0.031,-2.29 0.11,-7.557 -0.187,-8.667 -0.293,-1.09 -1.667,-1.04 -2.568,-1.895 -0.895,-0.872 -0.422,-2.396 0.921,-2.361 1.343,0.024 8.44,-0.039 9.412,-0.039 1.628,0 1.944,1.974 0.96,2.529 -1.198,0.683 -2.046,1.156 -2.175,2.161 -0.468,3.219 -0.265,6.131 0.122,8.088 0.164,0.821 0.984,2.259 2.272,2.775 0.886,0.344 1.92,0.496 3.205,-0.911 0,0 0.577,-0.969 1.019,-1.414 0.448,-0.442 1.596,-0.192 1.799,0.934 C 7.8,-2.462 8.627,0.055 9.237,1.618 9.775,2.938 9.841,4.314 6.242,3.958 2.385,3.556 0.902,1.106 0,0" />
      </g>
      <g
         style="fill:#fde488;fill-opacity:1"
         transform="matrix(0.35277777,0,0,-0.35277777,133.80551,245.95554)"
         id="g690">
        <path
           inkscape:connector-curvature="0"
           id="path692"
           style="fill:#fde488;fill-opacity:1;fill-rule:nonzero;stroke:none"
           d="m 0,0 c 4.927,0.41 9.006,-1.743 11.567,-4.834 4.63,-5.576 4.47,-14.337 -3.759,-16.908 -9.557,-2.548 -18.27,1.094 -18.27,10.156 C -10.563,-5.572 -6.605,-0.531 0,0 m 6.059,-8.233 c -1.425,3.325 -4.103,6.42 -7.417,5.58 -2.655,-0.665 -3.936,-4.4 -1.546,-10.523 1.569,-3.99 4.536,-7.824 8.49,-5.944 2.401,1.149 2.776,5.475 0.473,10.887" />
      </g>
      <g
         style="fill:#fde488;fill-opacity:1"
         transform="matrix(0.35277777,0,0,-0.35277777,26.97608,246.10434)"
         id="g694">
        <path
           inkscape:connector-curvature="0"
           id="path696"
           style="fill:#fde488;fill-opacity:1;fill-rule:nonzero;stroke:none"
           d="m 0,0 c -1.444,0.05 -3.677,-0.473 -4.927,-2.192 -0.273,-0.383 -0.975,-0.438 -0.975,0.066 0,0.5 0.019,12.297 0.019,12.934 0,0.649 -1.007,0.5 -1.409,0.258 -0.398,-0.258 -6.578,-4.279 -7.125,-4.669 -0.55,-0.407 -0.597,-1.431 0.047,-1.72 0.644,-0.312 2.214,-0.75 2.214,-1.539 -0.051,0.773 0.203,-16.073 -0.164,-20.16 -0.195,-1.891 -1.811,-2.305 -2.405,-2.751 -0.597,-0.441 -0.207,-2.079 0.824,-2.079 1.038,0 8.436,-0.106 9.224,-0.106 0.785,0 1.882,0.982 1.183,2.119 -0.453,0.738 -1.753,0.695 -2.252,2.368 -0.609,1.977 -0.25,8.331 0.086,10.406 0.144,0.965 0.554,1.567 1.428,2.024 0.894,0.445 1.562,0.254 2.058,-0.168 0.862,-0.688 1.526,-2.204 1.889,-2.947 0.902,-1.992 2.077,-6.881 2.077,-10.714 0,-10.938 -5.024,-13.857 -6.125,-14.599 -1.07,-0.746 -0.145,-1.802 0.718,-1.532 2.319,0.692 4.134,2.251 5.614,3.884 0.804,0.876 3.572,3.677 5.055,8.23 1.484,4.576 1.128,7.632 1.128,9.468 C 8.182,-8.269 4.845,-0.227 0,0" />
      </g>
      <g
         style="fill:#fde488;fill-opacity:1"
         transform="matrix(0.35277777,0,0,-0.35277777,54.339039,249.39494)"
         id="g698">
        <path
           inkscape:connector-curvature="0"
           id="path700"
           style="fill:#fde488;fill-opacity:1;fill-rule:nonzero;stroke:none"
           d="M 0,0 C 0.605,4.466 4.462,9.007 9.666,9.468 14.87,9.902 16.884,8.464 18.371,7.202 20.136,5.701 22.302,1.786 21.479,0.887 20.674,-0.004 12.387,-2.075 9.181,-3.372 8.584,-3.615 7.8,-3.818 8.093,-4.623 c 0.542,-1.563 2.318,-3.802 4.551,-4.45 3.143,-0.931 6.281,0.754 8.21,2.317 1.034,0.832 2.178,0.043 1.316,-1.571 -0.586,-1.075 -3.885,-4.107 -9.905,-4.428 C 3.299,-13.149 -0.839,-6.115 0,0 M 9.392,6.795 C 8.014,6.608 6.952,5.467 6.57,3.849 6.051,1.731 6.613,-1.106 7.284,-1.411 c 0.66,-0.301 6.711,1.915 7.125,2.63 0.538,0.906 -1.074,6.092 -5.017,5.576" />
      </g>
      <g
         style="fill:#fde488;fill-opacity:1"
         transform="matrix(0.35277777,0,0,-0.35277777,88.491278,249.39494)"
         id="g702">
        <path
           inkscape:connector-curvature="0"
           id="path704"
           style="fill:#fde488;fill-opacity:1;fill-rule:nonzero;stroke:none"
           d="M 0,0 C 0.621,4.466 4.474,9.007 9.677,9.468 14.873,9.902 16.9,8.464 18.387,7.202 20.136,5.701 22.314,1.786 21.494,0.887 20.682,-0.004 12.387,-2.075 9.193,-3.372 8.589,-3.615 7.812,-3.818 8.1,-4.623 c 0.539,-1.563 2.319,-3.802 4.556,-4.45 3.135,-0.931 6.278,0.754 8.214,2.317 1.03,0.832 2.564,0.336 1.698,-1.286 -0.586,-1.071 -4.099,-4.533 -10.302,-4.713 C 3.291,-12.93 -0.832,-6.115 0,0 M 9.404,6.795 C 8.018,6.608 6.964,5.467 6.57,3.849 6.055,1.731 6.625,-1.106 7.281,-1.411 c 0.663,-0.301 6.726,1.915 7.14,2.63 0.531,0.906 -1.082,6.092 -5.017,5.576" />
      </g>
      <g
         style="fill:#fde488;fill-opacity:1"
         transform="matrix(0.35277777,0,0,-0.35277777,111.11947,245.95416)"
         id="g706">
        <path
           inkscape:connector-curvature="0"
           id="path708"
           style="fill:#fde488;fill-opacity:1;fill-rule:nonzero;stroke:none"
           d="m 0,0 c 1.729,0.055 5.797,-0.332 7.542,-4.861 1.722,-4.451 3.623,-10.945 4.408,-12.309 0.776,-1.376 1.987,-1.985 2.701,-1.305 0.64,0.59 1.085,-0.278 1.073,-1.059 0,-0.958 -0.803,-2.392 -2.927,-2.904 -2.042,-0.5 -5.075,0.208 -5.704,1.087 -0.472,0.668 -0.901,1.344 -1.421,1.305 -1.534,-0.11 -3.033,-2.196 -7.807,-2.47 -6.082,-0.355 -9.03,3.4 -8.612,6.592 0.437,3.338 2.049,5.01 5.067,6.315 1.87,0.817 5.813,1.094 7.257,1.075 0.683,-0.004 0.184,1.082 0.133,1.371 -0.898,3.763 -3.877,3.994 -6.316,3.111 -1.46,-0.532 -2.741,-1.583 -3.127,-1.782 -1.078,-0.555 -2.03,0.723 -1.05,1.903 C -5.668,-0.172 -2.935,-0.066 0,0 m -1.612,-11.707 c -1.214,-0.551 -2.623,-2.22 -2.112,-4.072 0.574,-2.063 1.932,-3.912 5.645,-3.138 3.716,0.785 1.889,5.197 1.518,6.088 -0.371,0.895 -0.761,1.466 -1.639,1.536 -0.902,0.078 -2.179,0.145 -3.412,-0.414" />
      </g>
      <g
         style="fill:#fde488;fill-opacity:1"
         transform="matrix(0.35277777,0,0,-0.35277777,120.60683,245.99413)"
         id="g710">
        <path
           inkscape:connector-curvature="0"
           id="path712"
           style="fill:#fde488;fill-opacity:1;fill-rule:nonzero;stroke:none"
           d="m 0,0 c -5.012,-0.039 -12.137,-3.04 -12.348,-11.524 -0.187,-8.471 6.68,-11.101 11.918,-11.238 8.03,0.414 9.807,4.697 10.556,6.084 0.484,0.922 -1.093,2.185 -2.131,0.766 -2.467,-3.357 -5.856,-3.81 -7.882,-3.204 -3.435,1.016 -4.681,3.696 -5.145,7.916 -0.414,3.709 0.82,8.551 4.911,8.457 4.372,-0.129 4.591,-5.111 5.133,-6.112 0.539,-0.996 1.382,-0.926 1.964,0.309 0.554,1.176 1.073,2.95 1.846,4.248 0.73,1.285 0.067,1.848 -0.925,2.395 C 5.891,-0.801 3.806,0.012 0,0" />
      </g>
      <g
         style="fill:#fde488;fill-opacity:1"
         transform="matrix(0.35277777,0,0,-0.35277777,38.085791,249.40186)"
         id="g714">
        <path
           inkscape:connector-curvature="0"
           id="path716"
           style="fill:#fde488;fill-opacity:1;fill-rule:nonzero;stroke:none"
           d="M 0,0 C 0.624,4.459 4.466,9.007 9.665,9.456 14.865,9.898 16.903,8.46 18.371,7.194 20.143,5.689 22.318,1.778 21.494,0.887 20.682,-0.012 12.386,-2.083 9.189,-3.376 8.584,-3.63 7.803,-3.818 8.092,-4.627 c 0.551,-1.571 2.327,-3.798 4.56,-4.447 3.139,-0.933 6.289,0.755 8.206,2.322 1.031,0.828 2.182,0.046 1.327,-1.579 -0.597,-1.063 -3.888,-4.107 -9.916,-4.424 C 3.299,-13.157 -0.839,-6.127 0,0 M 9.396,6.792 C 8.002,6.608 6.972,5.471 6.574,3.849 6.054,1.723 6.609,-1.11 7.281,-1.411 c 0.667,-0.297 6.71,1.911 7.136,2.63 0.534,0.907 -1.078,6.077 -5.021,5.573" />
      </g>
      <g
         style="fill:#fde488;fill-opacity:1"
         transform="matrix(0.35277777,0,0,-0.35277777,153.35307,252.20439)"
         id="g718">
        <path
           inkscape:connector-curvature="0"
           id="path720"
           style="fill:#fde488;fill-opacity:1;fill-rule:nonzero;stroke:none"
           d="M 0,0 C 0,2.415 1.956,4.197 4.267,4.197 6.558,4.197 8.518,2.415 8.518,0 8.518,-2.438 6.558,-4.22 4.267,-4.22 1.956,-4.22 0,-2.438 0,0 m 4.267,-3.521 c 1.905,0 3.4,1.485 3.4,3.521 0,1.997 -1.495,3.497 -3.4,3.497 -1.909,0 -3.428,-1.5 -3.428,-3.497 0,-2.036 1.519,-3.521 3.428,-3.521" />
      </g>
      <g
         style="fill:#fde488;fill-opacity:1"
         transform="matrix(0.35277777,0,0,-0.35277777,154.54839,253.04898)"
         id="g722">
        <path
           inkscape:connector-curvature="0"
           id="path724"
           style="fill:#fde488;fill-opacity:1;fill-rule:nonzero;stroke:none"
           d="m 0,0 h -0.729 v 4.826 h 1.838 c 1.141,0 1.705,-0.42 1.705,-1.371 0,-0.864 -0.547,-1.239 -1.252,-1.327 L 2.934,0 H 2.116 L 0.841,2.091 H 0 Z m 0.874,2.711 c 0.623,0 1.173,0.045 1.173,0.791 0,0.594 -0.54,0.706 -1.05,0.706 H 0 V 2.711 Z" />
      </g>
    </g>
  </g>
</svg>
